<svg width="268" height="139" viewBox="0 0 268 139" fill="none" xmlns="http://www.w3.org/2000/svg">
<path d="M82.8718 100.323L26.5768 96.6119L0 0L8.97245 10.8698C9.18095 11.12 30.0309 36.14 48.65 36.14V42.1726C35.0628 42.1726 21.2809 31.6016 12.7672 23.5744L31.275 90.8782" fill="white"/>
<path d="M92.303 84.8525L63.5439 67.6374L55.468 20.3079L61.9385 26.1945C72.4677 35.7647 115.092 49.1295 115.523 49.2824L113.723 55.037C112.166 54.5505 80.1753 44.5008 64.0999 35.028L69.0205 63.8913" fill="white"/>
<path d="M145.255 101.512L170.88 98.266L167.863 94.1377C167.759 93.9987 157.334 78.4863 152.261 69.7502C143.921 55.3915 135.928 36.9601 135.852 36.7794L133.072 30.3089L130.292 36.8002C130.194 37.0365 120.277 60.4302 115.21 69.8822C110.679 78.2294 105.089 85.9568 98.5788 92.8728L94.2212 97.3L120.235 100.309L106.905 92.6643C112.131 86.5001 116.707 79.8136 120.562 72.7109C124.12 66.0528 129.812 53.1883 133.169 45.453C136.29 52.2362 141.599 63.3353 147.069 72.7595C150.62 78.8755 156.5 88.5499 160.045 93.54" fill="white"/>
<path d="M197.54 63.8913L202.461 35.028C186.378 44.48 154.394 54.5505 152.831 55.037L151.037 49.2824C151.468 49.1434 194.093 35.7577 204.615 26.1945L211.085 20.3079L203.017 67.6374L174.25 84.8525" fill="white"/>
<path d="M235.897 91.1701L254.433 23.8385C245.926 31.8727 232.13 42.4367 218.557 42.4367V36.4041C237.148 36.4041 257.991 11.3841 258.172 11.1617L267.172 0.291901L240.574 96.8969L184.279 100.608" fill="white"/>
<path d="M31.3792 125.17C35.3546 125.475 40.9424 125.865 40.9285 131.327C40.9285 137.513 36.2651 138.972 31.2611 138.972C26.2571 138.972 22.1288 138.034 21.5936 131.327H27.4177C28.0502 133.002 29.5027 133.412 31.2611 133.412C33.0194 133.412 35.1114 132.981 35.1114 131.327C35.1114 130.375 33.3808 130.229 31.1499 130.069C27.1745 129.763 21.5867 129.34 21.5936 123.932C21.5936 117.747 26.264 116.287 31.2611 116.287C36.2581 116.287 40.4003 117.191 40.9285 123.932H35.1114C34.4789 122.223 33.0264 121.847 31.2611 121.847C29.4958 121.847 27.4177 122.237 27.4177 123.932C27.4177 124.878 29.1413 125.01 31.3792 125.17Z" fill="white"/>
<path d="M49.053 116.795V138.444H43.493V116.795H49.053Z" fill="white"/>
<path d="M58.2063 116.83H64.8157L72.4607 138.479H66.2057L65.0868 134.774H57.9422L56.8232 138.479H50.5682L58.2063 116.83ZM59.5546 129.485H63.4674L61.5145 123.091L59.5546 129.485Z" fill="white"/>
<path d="M87.8619 116.795H93.4219V138.444H87.1669L79.5219 125.239V138.444H73.9619V116.795H81.6069L87.8619 128.262V116.795Z" fill="white"/>
<path d="M106.175 126.56H115.85V139H112.284L112.006 135.629C110.352 138.11 108.635 139 106.217 139C100.851 138.965 96.4868 136.616 96.4868 128.429V126.851C96.4868 118.65 100.851 116.301 106.217 116.28C111.158 116.28 115.252 118.331 115.85 124.996H109.949C109.652 124.33 109.109 123.805 108.434 123.529C107.725 123.265 106.973 123.135 106.217 123.147C103.937 123.196 102.012 123.842 102.047 127.366V127.88C102.047 131.438 103.944 132.05 106.217 132.099C108.489 132.147 109.81 131.904 110.651 130.264H106.175V126.56Z" fill="white"/>
<path d="M129.048 116.795H135.998L141.558 127.616L147.118 116.795H154.068V138.444H148.508V126.893L142.948 138.444H140.168L134.608 126.893V138.444H129.048V116.795Z" fill="white"/>
<path d="M163.221 116.83H169.823L177.468 138.479H171.213L170.087 134.774H162.957L161.831 138.479H155.576L163.221 116.83ZM164.569 129.485H168.475L166.529 123.091L164.569 129.485Z" fill="white"/>
<path d="M184.529 116.795V133.829H195.649V138.444H178.969V116.795H184.529Z" fill="white"/>
<path d="M204.803 116.83H211.405L219.05 138.479H212.795L211.676 134.774H204.538L203.413 138.479H197.158L204.803 116.83ZM206.151 129.485H210.064L208.111 123.091L206.151 129.485Z" fill="white"/>
<path d="M220.558 116.795H227.508L233.068 127.616L238.628 116.795H245.578V138.444H240.018V126.893L234.458 138.444H231.678L226.118 126.893V138.444H220.558V116.795Z" fill="white"/>
</svg>
