<svg width="120" height="63" viewBox="0 0 120 63" fill="none" xmlns="http://www.w3.org/2000/svg">
<path d="M37.2218 45.0601L11.9369 43.3932L0 0L4.02997 4.88216C4.12361 4.99454 13.4884 16.2322 21.8511 16.2322V18.9418C15.7484 18.9418 9.5583 14.1939 5.73435 10.5884L14.0471 40.8179" fill="white"/>
<path d="M41.4579 38.1114L28.5407 30.3793L24.9135 9.12128L27.8197 11.7653C32.5489 16.0637 51.6935 22.0665 51.8871 22.1352L51.0786 24.7198C50.3794 24.5013 36.0107 19.9875 28.7905 15.7328L31.0005 28.6967" fill="white"/>
<path d="M65.2411 45.5939L76.7504 44.1361L75.3957 42.2819C75.3488 42.2194 70.6665 35.2521 68.3877 31.3282C64.6418 24.879 61.052 16.6006 61.0176 16.5194L59.769 13.6132L58.5204 16.5288C58.4767 16.6349 54.0222 27.1422 51.7465 31.3875C49.7112 35.1367 47.2005 38.6074 44.2766 41.7137L42.3193 43.7022L54.0034 45.0538L48.0162 41.6201C50.3634 38.8514 52.4189 35.8482 54.1501 32.658C55.7484 29.6675 58.305 23.8895 59.8127 20.4152C61.2143 23.4618 63.5992 28.447 66.0559 32.6799C67.651 35.4269 70.2919 39.7721 71.8839 42.0134" fill="white"/>
<path d="M88.7249 28.6967L90.935 15.7328C83.7116 19.9782 69.3461 24.5013 68.6437 24.7198L67.8384 22.1352C68.0319 22.0727 87.1766 16.0606 91.9027 11.7653L94.8089 9.12128L91.1847 30.3793L78.2645 38.1114" fill="white"/>
<path d="M105.953 40.949L114.278 10.707C110.457 14.3156 104.261 19.0604 98.1646 19.0604V16.3509C106.515 16.3509 115.876 5.11315 115.958 5.01326L120 0.131104L108.054 43.5211L82.7689 45.1881" fill="white"/>
<path d="M14.0939 56.2198C15.8795 56.3571 18.3892 56.5319 18.383 58.9855C18.383 61.7637 16.2884 62.4192 14.0409 62.4192C11.7933 62.4192 9.9391 61.9978 9.69873 58.9855H12.3146C12.5987 59.7378 13.2511 59.922 14.0409 59.922C14.8306 59.922 15.7702 59.7284 15.7702 58.9855C15.7702 58.5578 14.9929 58.4923 13.9909 58.4205C12.2054 58.2831 9.69561 58.0927 9.69873 55.6641C9.69873 52.8859 11.7964 52.2304 14.0409 52.2304C16.2853 52.2304 18.1457 52.6362 18.383 55.6641H15.7702C15.4862 54.8962 14.8337 54.7276 14.0409 54.7276C13.248 54.7276 12.3146 54.9025 12.3146 55.6641C12.3146 56.0887 13.0888 56.148 14.0939 56.2198Z" fill="white"/>
<path d="M22.0322 52.4583V62.182H19.5349V52.4583H22.0322Z" fill="white"/>
<path d="M26.1433 52.4739H29.1119L32.5456 62.1976H29.7362L29.2336 60.5338H26.0246L25.5221 62.1976H22.7126L26.1433 52.4739ZM26.7489 58.1583H28.5063L27.6291 55.2864L26.7489 58.1583Z" fill="white"/>
<path d="M39.4631 52.4583H41.9604V62.182H39.151L35.7172 56.251V62.182H33.22V52.4583H36.6537L39.4631 57.6089V52.4583Z" fill="white"/>
<path d="M47.6884 56.8441H52.0337V62.4317H50.4323L50.3074 60.9178C49.5645 62.0322 48.7934 62.4317 47.7071 62.4317C45.2973 62.4161 43.3369 61.361 43.3369 57.6838V56.9752C43.3369 53.2917 45.2973 52.2366 47.7071 52.2273C49.9266 52.2273 51.7652 53.1481 52.0337 56.1417H49.3834C49.25 55.8427 49.0062 55.6067 48.7029 55.4831C48.3846 55.3642 48.0469 55.306 47.7071 55.3114C46.6833 55.3332 45.8186 55.6235 45.8342 57.2062V57.4372C45.8342 59.0354 46.6864 59.3101 47.7071 59.332C48.7279 59.3538 49.321 59.2446 49.6987 58.5079H47.6884V56.8441Z" fill="white"/>
<path d="M57.9615 52.4583H61.0831L63.5804 57.3186L66.0777 52.4583H69.1993V62.182H66.702V56.9939L64.2047 62.182H62.9561L60.4588 56.9939V62.182H57.9615V52.4583Z" fill="white"/>
<path d="M73.3105 52.4739H76.276L79.7097 62.1976H76.9003L76.3946 60.5338H73.1918L72.6861 62.1976H69.8767L73.3105 52.4739ZM73.916 58.1583H75.6704L74.7963 55.2864L73.916 58.1583Z" fill="white"/>
<path d="M82.8812 52.4583V60.1093H87.8757V62.182H80.3839V52.4583H82.8812Z" fill="white"/>
<path d="M91.9868 52.4739H94.9524L98.3861 62.1976H95.5767L95.0741 60.5338H91.8682L91.3625 62.1976H88.5531L91.9868 52.4739ZM92.5924 58.1583H94.3499L93.4727 55.2864L92.5924 58.1583Z" fill="white"/>
<path d="M99.0635 52.4583H102.185L104.682 57.3186L107.18 52.4583H110.301V62.182H107.804V56.9939L105.307 62.182H104.058L101.561 56.9939V62.182H99.0635V52.4583Z" fill="white"/>
</svg>
