<svg width="385" height="200" viewBox="0 0 385 200" fill="none" xmlns="http://www.w3.org/2000/svg">
<g clip-path="url(#clip0_76_2)">
<path d="M119.24 144.35L38.24 139.01L0 0L12.91 15.64C13.21 16 43.21 52 70 52V60.68C50.45 60.68 30.62 45.47 18.37 33.92L45 130.76" fill="#FF3D00"/>
<path d="M132.81 122.09L91.4301 97.32L79.8101 29.22L89.1201 37.69C104.27 51.46 165.6 70.69 166.22 70.91L163.63 79.19C161.39 78.49 115.36 64.03 92.2301 50.4L99.3101 91.93" fill="#FF3D00"/>
<path d="M209 146.06L245.87 141.39L241.53 135.45C241.38 135.25 226.38 112.93 219.08 100.36C207.08 79.7 195.58 53.18 195.47 52.92L191.47 43.61L187.47 52.95C187.33 53.29 173.06 86.95 165.77 100.55C159.25 112.56 151.207 123.679 141.84 133.63L135.57 140L173 144.33L153.82 133.33C161.339 124.461 167.924 114.84 173.47 104.62C178.59 95.04 186.78 76.53 191.61 65.4C196.1 75.16 203.74 91.13 211.61 104.69C216.72 113.49 225.18 127.41 230.28 134.59" fill="#FF3D00"/>
<path d="M284.23 91.93L291.31 50.4C268.17 64 222.15 78.49 219.9 79.19L217.32 70.91C217.94 70.71 279.27 51.45 294.41 37.69L303.72 29.22L292.11 97.32L250.72 122.09" fill="#FF3D00"/>
<path d="M339.42 131.18L366.09 34.3C353.85 45.86 334 61.06 314.47 61.06V52.38C341.22 52.38 371.21 16.38 371.47 16.06L384.42 0.419998L346.15 139.42L265.15 144.76" fill="#FF3D00"/>
<path d="M45.15 180.1C50.87 180.54 58.91 181.1 58.89 188.96C58.89 197.86 52.18 199.96 44.98 199.96C37.78 199.96 31.84 198.61 31.07 188.96H39.45C40.36 191.37 42.45 191.96 44.98 191.96C47.51 191.96 50.52 191.34 50.52 188.96C50.52 187.59 48.03 187.38 44.82 187.15C39.1 186.71 31.06 186.1 31.07 178.32C31.07 169.42 37.79 167.32 44.98 167.32C52.17 167.32 58.13 168.62 58.89 178.32H50.52C49.61 175.86 47.52 175.32 44.98 175.32C42.44 175.32 39.45 175.88 39.45 178.32C39.45 179.68 41.93 179.87 45.15 180.1Z" fill="#FF3D00"/>
<path d="M70.58 168.05V199.2H62.58V168.05H70.58Z" fill="#FF3D00"/>
<path d="M83.75 168.1H93.26L104.26 199.25H95.26L93.65 193.92H83.37L81.76 199.25H72.76L83.75 168.1ZM85.69 186.31H91.32L88.51 177.11L85.69 186.31Z" fill="#FF3D00"/>
<path d="M126.42 168.05H134.42V199.2H125.42L114.42 180.2V199.2H106.42V168.05H117.42L126.42 184.55V168.05Z" fill="#FF3D00"/>
<path d="M152.77 182.1H166.69V200H161.56L161.16 195.15C158.78 198.72 156.31 200 152.83 200C145.11 199.95 138.83 196.57 138.83 184.79V182.52C138.83 170.72 145.11 167.34 152.83 167.31C159.94 167.31 165.83 170.26 166.69 179.85H158.2C157.772 178.892 156.991 178.136 156.02 177.74C155 177.359 153.918 177.173 152.83 177.19C149.55 177.26 146.78 178.19 146.83 183.26V184C146.83 189.12 149.56 190 152.83 190.07C156.1 190.14 158 189.79 159.21 187.43H152.77V182.1Z" fill="#FF3D00"/>
<path d="M185.68 168.05H195.68L203.68 183.62L211.68 168.05H221.68V199.2H213.68V182.58L205.68 199.2H201.68L193.68 182.58V199.2H185.68V168.05Z" fill="#FF3D00"/>
<path d="M234.85 168.1H244.35L255.35 199.25H246.35L244.73 193.92H234.47L232.85 199.25H223.85L234.85 168.1ZM236.79 186.31H242.41L239.61 177.11L236.79 186.31Z" fill="#FF3D00"/>
<path d="M265.51 168.05V192.56H281.51V199.2H257.51V168.05H265.51Z" fill="#FF3D00"/>
<path d="M294.68 168.1H304.18L315.18 199.25H306.18L304.57 193.92H294.3L292.68 199.25H283.68L294.68 168.1ZM296.62 186.31H302.25L299.44 177.11L296.62 186.31Z" fill="#FF3D00"/>
<path d="M317.35 168.05H327.35L335.35 183.62L343.35 168.05H353.35V199.2H345.35V182.58L337.35 199.2H333.35L325.35 182.58V199.2H317.35V168.05Z" fill="#FF3D00"/>
</g>
<defs>
<clipPath id="clip0_76_2">
<rect width="384.42" height="199.97" fill="white"/>
</clipPath>
</defs>
</svg>
